<?xml version="1.0" encoding="UTF-8"?>
<svg width="22.451mm" height="22.451mm" version="1.1" viewBox="0 0 22.451 22.451" xmlns="http://www.w3.org/2000/svg"><g transform="translate(20.297 38.907)"><g transform="translate(-138.74 -118.15)"><rect transform="scale(-1,1)" x="-138.17" y="80.243" width="17.014" height="20.449" rx="2.2903" ry="2.2903" fill="none" stroke="#1cc1ff" stroke-width="1.0583"/><path d="m121.71 89.987c3.0441 0 3.0441 0.04686 3.0441 0.04686s1.1394-3.0883 1.967 0c0.82751 3.0883 0.98347 2.4821 1.124 2.3416 0.1405-0.1405 0.51516-9.8816 0.88982-10.35 0.37466-0.46832 1.0303 11.802 1.3581 11.333 0.32782-0.46832 0.70248-1.2176 1.2645-1.7328 0.56199-0.51515-0.0469-1.5455 0.46832-1.1708 0.51516 0.37466 0.70248 1.1708 1.0771 1.1708s1.8733-1.5923 2.3884-1.5923h2.2479" fill="none" stroke="#1cc1ff" stroke-linecap="round" stroke-linejoin="round" stroke-width=".92723"/><text x="122.79413" y="98.523247" fill="#1cc1ff" font-family="sans-serif" font-size="4.0553px" letter-spacing="0px" stroke-width=".10138" word-spacing="0px" style="line-height:1.25" xml:space="preserve"><tspan x="122.79413" y="98.523247" dx="0 -0.43449694" fill="#1cc1ff" font-weight="bold" stroke-width=".10138">HR</tspan></text><text x="131.15817" y="98.523247" fill="#1cc1ff" font-family="sans-serif" font-size="4.0553px" letter-spacing="0px" stroke-width=".10138" word-spacing="0px" style="line-height:1.25" xml:space="preserve"><tspan x="131.15817" y="98.523247" fill="#1cc1ff" font-weight="bold" stroke-width=".10138">O<tspan dx="-0.39828888" baseline-shift="sub" fill="#1cc1ff" font-size="2.9739px" font-weight="bold" stroke-width=".10138">2</tspan></tspan></text></g></g></svg>
